<?xml version="1.0" encoding="utf-8"?>
<!-- Generator: Adobe Illustrator 27.1.0, SVG Export Plug-In . SVG Version: 6.00 Build 0)  -->
<svg version="1.1" id="Calque_1" xmlns:serif="http://www.serif.com/"
	 xmlns="http://www.w3.org/2000/svg" xmlns:xlink="http://www.w3.org/1999/xlink" x="0px" y="0px" viewBox="0 0 32 32"
	 style="enable-background:new 0 0 32 32;" xml:space="preserve">
<style type="text/css">
	.st0{fill-rule:evenodd;clip-rule:evenodd;fill:#FFFFFF;}
</style>
<g id="Icon">
	<path class="st0" d="M11.7,16l-8.8,8.8c-1.2,1.2-1.2,3.1,0,4.2c1.2,1.2,3.1,1.2,4.2,0l8.8-8.8l8.8,8.8c1.2,1.2,3.1,1.2,4.2,0
		c1.2-1.2,1.2-3.1,0-4.2L20.2,16L29,7.1c1.2-1.2,1.2-3.1,0-4.2c-1.2-1.2-3.1-1.2-4.2,0L16,11.7L7.1,2.9C6,1.7,4.1,1.7,2.9,2.9
		C1.7,4.1,1.7,6,2.9,7.1C2.9,7.1,11.7,16,11.7,16z M13.8,16.7c0.4-0.4,0.4-1,0-1.4L4.3,5.7c-0.4-0.4-0.4-1,0-1.4
		c0.4-0.4,1-0.4,1.4,0l9.5,9.5c0.4,0.4,1,0.4,1.4,0l9.5-9.5c0.4-0.4,1-0.4,1.4,0c0.4,0.4,0.4,1,0,1.4l-9.5,9.5c-0.4,0.4-0.4,1,0,1.4
		l9.5,9.5c0.4,0.4,0.4,1,0,1.4c-0.4,0.4-1,0.4-1.4,0l-9.5-9.5c-0.4-0.4-1-0.4-1.4,0l-9.5,9.5c-0.4,0.4-1,0.4-1.4,0
		c-0.4-0.4-0.4-1,0-1.4L13.8,16.7z"/>
</g>
</svg>
